REM DIRINDEX 1\2,1\3
REM DIRNAME folder01,folder02,folder03
TITLE ""
FILE "CD1Track35.mp3" MP3
  TRACK 01 AUDIO
    TITLE "0:"
    INDEX 01 00:00:00
  TRACK 02 AUDIO
    TITLE "2:cjc102_1661"
    INDEX 01 00:00:25
  TRACK 03 AUDIO
    TITLE "0:"
    INDEX 01 00:01:21
  TRACK 04 AUDIO
    TITLE "3:cjc102_1662"
    INDEX 01 00:01:26
  TRACK 05 AUDIO
    TITLE "0:"
    INDEX 01 00:02:59
  TRACK 06 AUDIO
    TITLE "3:cjc102_1663"
    INDEX 01 00:03:31
  TRACK 07 AUDIO
    TITLE "0:"
    INDEX 01 00:07:02
  TRACK 08 AUDIO
    TITLE "2:cjc102_1664"
    INDEX 01 00:07:05
  TRACK 09 AUDIO
    TITLE "0:"
    INDEX 01 00:08:03
  TRACK 10 AUDIO
    TITLE "3:cjc102_1665"
    INDEX 01 00:08:64
  TRACK 11 AUDIO
    TITLE "0:"
    INDEX 01 00:09:61
  TRACK 12 AUDIO
    TITLE "2:cjc102_1666"
    INDEX 01 00:09:71
  TRACK 13 AUDIO
    TITLE "0:"
    INDEX 01 00:11:07
  TRACK 14 AUDIO
    TITLE "3:cjc102_1667"
    INDEX 01 00:11:52
  TRACK 15 AUDIO
    TITLE "0:"
    INDEX 01 00:12:38
  TRACK 16 AUDIO
    TITLE "2:cjc102_1668"
    INDEX 01 00:12:56
  TRACK 17 AUDIO
    TITLE "0:"
    INDEX 01 00:13:59
  TRACK 18 AUDIO
    TITLE "3:cjc102_1669"
    INDEX 01 00:14:49
  TRACK 19 AUDIO
    TITLE "0:"
    INDEX 01 00:15:46
  TRACK 20 AUDIO
    TITLE "2:cjc102_1670"
    INDEX 01 00:15:48
  TRACK 21 AUDIO
    TITLE "0:"
    INDEX 01 00:16:69
  TRACK 22 AUDIO
    TITLE "3:cjc102_1671"
    INDEX 01 00:17:49
  TRACK 23 AUDIO
    TITLE "0:"
    INDEX 01 00:18:44
  TRACK 24 AUDIO
    TITLE "2:cjc102_1672"
    INDEX 01 00:18:50
  TRACK 25 AUDIO
    TITLE "0:"
    INDEX 01 00:19:71
  TRACK 26 AUDIO
    TITLE "3:cjc102_1673"
    INDEX 01 00:20:24
  TRACK 27 AUDIO
    TITLE "0:"
    INDEX 01 00:21:04
  TRACK 28 AUDIO
    TITLE "2:cjc102_1674"
    INDEX 01 00:21:53
  TRACK 29 AUDIO
    TITLE "0:"
    INDEX 01 00:22:74
  TRACK 30 AUDIO
    TITLE "3:cjc102_1675"
    INDEX 01 00:23:48
  TRACK 31 AUDIO
    TITLE "0:"
    INDEX 01 00:24:45
  TRACK 32 AUDIO
    TITLE "2:cjc102_1676"
    INDEX 01 00:24:63
  TRACK 33 AUDIO
    TITLE "0:"
    INDEX 01 00:25:72
  TRACK 34 AUDIO
    TITLE "3:cjc102_1677"
    INDEX 01 00:26:38
  TRACK 35 AUDIO
    TITLE "0:"
    INDEX 01 00:27:32
  TRACK 36 AUDIO
    TITLE "2:cjc102_1678"
    INDEX 01 00:27:69
  TRACK 37 AUDIO
    TITLE "0:"
    INDEX 01 00:29:13
  TRACK 38 AUDIO
    TITLE "3:cjc102_1679"
    INDEX 01 00:29:66
  TRACK 39 AUDIO
    TITLE "0:"
    INDEX 01 00:30:61
  TRACK 40 AUDIO
    TITLE "2:cjc102_1680"
    INDEX 01 00:31:02
  TRACK 41 AUDIO
    TITLE "0:"
    INDEX 01 00:32:21
  TRACK 42 AUDIO
    TITLE "3:cjc102_1681"
    INDEX 01 00:33:17
  TRACK 43 AUDIO
    TITLE "0:"
    INDEX 01 00:34:10
  TRACK 44 AUDIO
    TITLE "2:cjc102_1682"
    INDEX 01 00:34:43
  TRACK 45 AUDIO
    TITLE "0:"
    INDEX 01 00:35:37
  TRACK 46 AUDIO
    TITLE "3:cjc102_1683"
    INDEX 01 00:36:11
  TRACK 47 AUDIO
    TITLE "0:"
    INDEX 01 00:37:05
  TRACK 48 AUDIO
    TITLE "2:cjc102_1684"
    INDEX 01 00:37:38
  TRACK 49 AUDIO
    TITLE "0:"
    INDEX 01 00:38:47
  TRACK 50 AUDIO
    TITLE "3:cjc102_1685"
    INDEX 01 00:39:51
  TRACK 51 AUDIO
    TITLE "0:"
    INDEX 01 00:40:56
  TRACK 52 AUDIO
    TITLE "2:cjc102_1686"
    INDEX 01 00:40:58
  TRACK 53 AUDIO
    TITLE "0:"
    INDEX 01 00:41:59
  TRACK 54 AUDIO
    TITLE "3:cjc102_1687"
    INDEX 01 00:42:35
  TRACK 55 AUDIO
    TITLE "0:"
    INDEX 01 00:43:46
  TRACK 56 AUDIO
    TITLE "2:cjc102_1688"
    INDEX 01 00:43:62
  TRACK 57 AUDIO
    TITLE "0:"
    INDEX 01 00:45:02
  TRACK 58 AUDIO
    TITLE "3:cjc102_1689"
    INDEX 01 00:45:45
  TRACK 59 AUDIO
    TITLE "0:"
    INDEX 01 00:46:64
  TRACK 60 AUDIO
    TITLE "2:cjc102_1690"
    INDEX 01 00:46:70
  TRACK 61 AUDIO
    TITLE "0:"
    INDEX 01 00:47:72
  TRACK 62 AUDIO
    TITLE "3:cjc102_1691"
    INDEX 01 00:48:36
  TRACK 63 AUDIO
    TITLE "0:"
    INDEX 01 00:49:53
  TRACK 64 AUDIO
    TITLE "2:cjc102_1692"
    INDEX 01 00:50:11
  TRACK 65 AUDIO
    TITLE "0:"
    INDEX 01 00:51:24
  TRACK 66 AUDIO
    TITLE "3:cjc102_1693"
    INDEX 01 00:51:65
  TRACK 67 AUDIO
    TITLE "0:"
    INDEX 01 00:52:73
  TRACK 68 AUDIO
    TITLE "2:cjc102_1694"
    INDEX 01 00:53:27
  TRACK 69 AUDIO
    TITLE "0:"
    INDEX 01 00:54:36
  TRACK 70 AUDIO
    TITLE "3:cjc102_1695"
    INDEX 01 00:55:34
  TRACK 71 AUDIO
    TITLE "0:"
    INDEX 01 00:56:35
  TRACK 72 AUDIO
    TITLE "2:cjc102_1696"
    INDEX 01 00:56:39
  TRACK 73 AUDIO
    TITLE "0:"
    INDEX 01 00:57:45
  TRACK 74 AUDIO
    TITLE "3:cjc102_1697"
    INDEX 01 00:59:30
  TRACK 75 AUDIO
    TITLE "0:"
    INDEX 01 01:00:51
  TRACK 76 AUDIO
    TITLE "2:cjc102_1698"
    INDEX 01 01:00:62
  TRACK 77 AUDIO
    TITLE "0:"
    INDEX 01 01:01:66
  TRACK 78 AUDIO
    TITLE "2:cjc102_1699"
    INDEX 01 01:02:03
  TRACK 79 AUDIO
    TITLE "0:"
    INDEX 01 01:03:14
  TRACK 80 AUDIO
    TITLE "3:cjc102_1700"
    INDEX 01 01:04:09
  TRACK 81 AUDIO
    TITLE "0:"
    INDEX 01 01:05:34
  TRACK 82 AUDIO
    TITLE "2:cjc102_1701"
    INDEX 01 01:05:38
  TRACK 83 AUDIO
    TITLE "0:"
    INDEX 01 01:06:42
  TRACK 84 AUDIO
    TITLE "2:cjc102_1702"
    INDEX 01 01:06:51
  TRACK 85 AUDIO
    TITLE "0:"
    INDEX 01 01:07:59
  TRACK 86 AUDIO
    TITLE "3:cjc102_1703"
    INDEX 01 01:08:50
  TRACK 87 AUDIO
    TITLE "0:"
    INDEX 01 01:09:73
  TRACK 88 AUDIO
    TITLE "2:cjc102_1704"
    INDEX 01 01:10:00
  TRACK 89 AUDIO
    TITLE "0:"
    INDEX 01 01:11:05
  TRACK 90 AUDIO
    TITLE "2:cjc102_1705"
    INDEX 01 01:11:17
  TRACK 91 AUDIO
    TITLE "0:"
    INDEX 01 01:12:24
  TRACK 92 AUDIO
    TITLE "3:cjc102_1706"
    INDEX 01 01:12:70
  TRACK 93 AUDIO
    TITLE "0:"
    INDEX 01 01:14:04
  TRACK 94 AUDIO
    TITLE "2:cjc102_1707"
    INDEX 01 01:14:41
  TRACK 95 AUDIO
    TITLE "0:"
    INDEX 01 01:15:39
  TRACK 96 AUDIO
    TITLE "2:cjc102_1708"
    INDEX 01 01:15:62
  TRACK 97 AUDIO
    TITLE "0:"
    INDEX 01 01:16:63
  TRACK 98 AUDIO
    TITLE "3:cjc102_1709"
    INDEX 01 01:17:69
  TRACK 99 AUDIO
    TITLE "0:"
    INDEX 01 01:19:21
  TRACK 100 AUDIO
    TITLE "2:cjc102_1710"
    INDEX 01 01:19:42
  TRACK 101 AUDIO
    TITLE "0:"
    INDEX 01 01:20:53
  TRACK 102 AUDIO
    TITLE "2:cjc102_1711"
    INDEX 01 01:20:71
  TRACK 103 AUDIO
    TITLE "0:"
    INDEX 01 01:22:07
  TRACK 104 AUDIO
    TITLE "3:cjc102_1712"
    INDEX 01 01:22:62
  TRACK 105 AUDIO
    TITLE "0:"
    INDEX 01 01:24:10
  TRACK 106 AUDIO
    TITLE "2:cjc102_1713"
    INDEX 01 01:25:15
  TRACK 107 AUDIO
    TITLE "0:"
    INDEX 01 01:26:15
  TRACK 108 AUDIO
    TITLE "2:cjc102_1714"
    INDEX 01 01:26:38
  TRACK 109 AUDIO
    TITLE "0:"
    INDEX 01 01:27:44
  TRACK 110 AUDIO
    TITLE "3:cjc102_1715"
    INDEX 01 01:27:65
  TRACK 111 AUDIO
    TITLE "0:"
    INDEX 01 01:29:19
  TRACK 112 AUDIO
    TITLE "2:cjc102_1716"
    INDEX 01 01:29:33
  TRACK 113 AUDIO
    TITLE "0:"
    INDEX 01 01:31:43
  TRACK 114 AUDIO
    TITLE "3:cjc102_1717"
    INDEX 01 01:32:66
  TRACK 115 AUDIO
    TITLE "0:"
    INDEX 01 01:34:22
  TRACK 116 AUDIO
    TITLE "2:cjc102_1718"
    INDEX 01 01:35:16
  TRACK 117 AUDIO
    TITLE "0:"
    INDEX 01 01:38:20
  TRACK 118 AUDIO
    TITLE "3:cjc102_1719"
    INDEX 01 01:38:59
  TRACK 119 AUDIO
    TITLE "0:"
    INDEX 01 01:40:05
  TRACK 120 AUDIO
    TITLE "2:cjc102_1720"
    INDEX 01 01:40:48
  TRACK 121 AUDIO
    TITLE "0:"
    INDEX 01 01:44:58
